Coordinates
version=1
nRows=12
nColumns=24
inDegrees=yes

Units are S.I. units (second, meters, Newtons, ...)
Angles are in degrees.

endheader
time	pelvis_tilt	pelvis_list	pelvis_rotation	pelvis_tx	pelvis_ty	pelvis_tz	hip_flexion_r	hip_adduction_r	hip_rotation_r	knee_angle_r	ankle_angle_r	subtalar_angle_r	mtp_angle_r	hip_flexion_l	hip_adduction_l	hip_rotation_l	knee_angle_l	ankle_angle_l	subtalar_angle_l	mtp_angle_l	lumbar_extension	lumbar_bending	lumbar_rotation
      3.29500000	     -8.08394464	      0.54108030	     -5.49336639	     -1.20105466	     -0.04255901	      0.69704935	     -9.48888336	     -1.66387090	     11.04087894	     -9.49216828	     13.19870186	      1.21297961	      9.77891269	     40.57341188	     -4.54969048	     -7.29375715	    -24.27727984	      5.01673483	      5.98730206	     -5.70817537	      3.64520244	      3.67705199	      5.64348518
      3.30000000	     -8.14770284	      0.80344628	     -5.84642009	     -1.19312007	     -0.04380212	      0.69748428	     -9.61245573	     -2.03592143	     10.95127412	     -9.92569238	     13.23676317	      1.86940725	     10.27281306	     40.42225742	     -4.45572080	     -7.44497949	    -23.92359984	      5.28574673	      6.18551371	     -5.71808274	      3.79539170	      3.28196452	      5.99849390
      3.30500000	     -8.33066958	      1.09904671	     -6.08954234	     -1.18489165	     -0.04516937	      0.69786187	     -9.64023595	     -2.39911876	     10.97454324	    -10.35317518	     13.16474993	      2.18200646	     10.53750513	     40.40355973	     -4.27063876	     -7.55594601	    -23.70446693	      5.44990972	      6.32238975	     -5.65144992	      4.13860722	      2.84401715	      6.18203167
      3.31000000	     -8.38952549	      1.39335014	     -6.38618209	     -1.17675821	     -0.04636056	      0.69813618	     -9.70382333	     -2.81349779	     10.71300567	    -10.89834190	     13.11928246	      3.00299185	     11.30862756	     40.23337121	     -4.07710991	     -7.63646462	    -23.57823844	      5.47510991	      6.29296533	     -5.42813712	      4.32059045	      2.41583579	      6.47626633
      3.31500000	     -8.60052282	      1.70218367	     -6.62235672	     -1.16835923	     -0.04768590	      0.69844672	     -9.63651323	     -3.18295817	     10.80231176	    -11.44320527	     12.93034056	      3.25469443	     11.59759957	     40.23040653	     -3.84893421	     -7.70798508	    -23.58072264	      5.43023259	      6.19882415	     -5.28817375	      4.72278872	      1.97288179	      6.66101310
      3.32000000	     -8.71784061	      2.04725188	     -6.76966345	     -1.15992155	     -0.04891684	      0.69852697	     -9.60650008	     -3.63233278	     10.36207390	    -12.05057930	     12.66836381	      3.99440736	     13.00099045	     40.12612030	     -3.49667185	     -7.67988815	    -23.62941644	      4.97289758	      5.96854781	     -4.21173385	      5.02497441	      1.47911710	      6.76983225
      3.32500000	     -8.92976140	      2.33106722	     -7.06818045	     -1.15153778	     -0.05012775	      0.69883489	     -9.41156907	     -3.97828529	     10.53454211	    -12.79378045	     12.38801373	      4.32297804	     13.25127261	     40.13831861	     -3.31084958	     -7.72942163	    -23.85912855	      4.69969699	      5.75051233	     -3.97065424	      5.41994956	      1.08248064	      7.05137310
      3.33000000	     -9.07167670	      2.65012504	     -7.16234739	     -1.14308870	     -0.05127156	      0.69891002	     -9.26379300	     -4.37266209	     10.09752086	    -13.54072561	     11.83712701	      4.83257540	     15.09335121	     40.09214200	     -2.95351357	     -7.63825874	    -24.03365179	      3.35023022	      5.33206352	     -0.79679625	      5.74363769	      0.60387210	      7.13418971
      3.33500000	     -9.38493940	      2.96686324	     -7.32464229	     -1.13467581	     -0.05256234	      0.69897023	     -8.80824762	     -4.74646621	      9.87611459	    -14.56427646	     11.62051427	      5.68577740	     15.46422104	     40.29937122	     -2.64346903	     -7.44654187	    -24.48939529	      2.70134228	      5.08193446	      0.04494471	      6.25558858	      0.17442944	      7.28515910
      3.34000000	     -9.56216066	      3.34220949	     -7.37480436	     -1.12625568	     -0.05356828	      0.69910940	     -8.50751849	     -5.15727592	      9.67666081	    -15.51485464	     10.91755810	      5.96461168	     16.98941310	     40.37196794	     -2.20999536	     -7.20963592	    -24.85663043	      1.01554652	      4.57823863	      3.59785115	      6.61976371	     -0.38803115	      7.30370922
      3.34500000	     -9.85171601	      3.73765996	     -7.36870314	     -1.11789604	     -0.05464483	      0.69906408	     -7.96305822	     -5.58399626	      9.27209838	    -16.70698729	     10.34826274	      6.60403773	     17.91769833	     40.65823650	     -1.70182200	     -6.75813431	    -25.43989406	     -0.26447925	      4.05634185	      5.63608961	      7.09859821	     -0.95249751	      7.28586901
      3.35000000	    -10.19607918	      4.16859169	     -7.34628830	     -1.10963291	     -0.05572584	      0.69885866	     -7.24519550	     -6.05878862	      8.84945411	    -18.09118308	      9.82306695	      7.49810748	     18.60866287	     41.08199918	     -1.10879069	     -6.07195196	    -26.20824483	     -1.08783097	      3.50029083	      6.28727105	      7.62173766	     -1.53659188	      7.26349803
